# Blender v2.78 (sub 0) OBJ File: ''
# www.blender.org
mtllib deco_lamp.mtl
o nodebox15
v 0.250000 0.196879 -0.250000
v 0.250000 0.196879 0.250000
v 0.250000 0.259379 0.250000
v 0.250000 0.259379 -0.250000
v -0.250000 0.196879 -0.250000
v -0.250000 0.196879 0.250000
v -0.250000 0.259379 0.250000
v -0.250000 0.259379 -0.250000
vt -0.0000 0.8750
vt 1.0000 0.8750
vt 1.0000 1.0000
vt -0.0000 1.0000
vt -0.0000 0.8750
vt 1.0000 0.8750
vt 1.0000 1.0000
vt -0.0000 1.0000
vt 1.0000 0.8750
vt 1.0000 1.0000
vt 0.0000 1.0000
vt 0.0000 0.8750
vt 1.0000 0.5000
vt 0.0000 0.5000
vt 0.0000 0.0000
vt 0.0000 0.0000
vt 0.0000 0.0000
vt 0.0000 0.0000
vn -1.0000 0.0000 0.0000
vn 0.0000 -0.0000 1.0000
vn 0.0000 -1.0000 -0.0000
usemtl none
s off
f 1/1/1 2/2/1 3/3/1 4/4/1
f 5/5/1 6/6/1 7/7/1 8/8/1
f 1/9/2 4/10/2 8/8/2 5/5/2
f 2/2/2 3/3/2 7/11/2 6/12/2
f 4/13/3 3/3/3 7/11/3 8/14/3
usemtl none_NONE
f 1/15/3 2/16/3 6/17/3 5/18/3
o nodebox11
v 0.500000 -0.053121 -0.500000
v 0.500000 -0.053121 0.500000
v 0.500000 0.009379 0.500000
v 0.500000 0.009379 -0.500000
v -0.500000 -0.053121 -0.500000
v -0.500000 -0.053121 0.500000
v -0.500000 0.009379 0.500000
v -0.500000 0.009379 -0.500000
v 0.500000 -0.053121 -0.500000
v 0.500000 0.009379 -0.500000
v -0.500000 -0.053121 -0.500000
v -0.500000 0.009379 -0.500000
vt 1.0000 1.0000
vt 0.0000 1.0000
vt 0.0000 0.9375
vt 1.0000 0.9375
vt 0.0000 0.9375
vt 1.0000 0.9375
vt 1.0000 1.0000
vt 0.0000 1.0000
vt 1.0000 0.9375
vt 1.0000 1.0000
vt 0.0000 1.0000
vt 0.0000 0.9375
vt 1.0000 0.9375
vt 1.0000 1.0000
vt 0.0000 1.0000
vt 0.0000 0.9375
vt 1.0000 0.5000
vt 1.0000 1.0000
vt 0.0000 1.0000
vt 0.0000 0.5000
vt 1.0000 0.5000
vt 0.0000 0.5000
vn -1.0000 0.0000 0.0000
vn 0.0000 0.0000 1.0000
vn 0.0000 -1.0000 -0.0000
usemtl none
s off
f 9/19/4 10/20/4 11/21/4 12/22/4
f 13/23/4 14/24/4 15/25/4 16/26/4
f 17/27/5 18/28/5 20/29/5 19/30/5
f 10/31/5 11/32/5 15/33/5 14/34/5
f 9/35/6 10/36/6 14/37/6 13/38/6
f 12/39/6 11/32/6 15/33/6 16/40/6
o nodebox10
v 0.125000 -0.386920 -0.125000
v 0.125000 -0.386920 0.125000
v 0.125000 0.232195 0.125000
v 0.125000 0.232195 -0.125000
v -0.125000 -0.386920 -0.125000
v -0.125000 -0.386920 0.125000
v -0.125000 0.232195 0.125000
v -0.125000 0.232195 -0.125000
vt 0.0000 0.0000
vt 1.0000 0.0000
vt 1.0000 1.0000
vt 0.0000 1.0000
vt 0.0000 0.0000
vt 1.0000 0.0000
vt 1.0000 1.0000
vt 0.0000 1.0000
vt 0.3125 0.0000
vt 0.6875 0.0000
vt 0.6875 0.5000
vt 0.3125 0.5000
vt 0.6875 0.5000
vt 0.3125 0.5000
vt 0.3125 0.0000
vt 0.6875 0.0000
vt 0.3125 0.5000
vt 0.3125 0.0000
vt 0.3125 0.5000
vt 0.3125 0.0000
vn 0.0000 -1.0000 -0.0000
vn -1.0000 -0.0000 0.0000
vn 0.0000 -0.0000 1.0000
usemtl none_wool_dark_grey.png
s off
f 21/41/7 22/42/7 26/43/7 25/44/7
f 24/45/7 23/46/7 27/47/7 28/48/7
usemtl none
f 21/49/8 22/50/8 23/51/8 24/52/8
f 25/53/8 26/54/8 27/55/8 28/56/8
f 21/57/9 24/58/9 28/56/9 25/53/9
f 22/50/9 23/51/9 27/59/9 26/60/9
o nodebox12
v 0.437500 0.009379 -0.437500
v 0.437500 0.009379 0.437500
v 0.437500 0.071879 0.437500
v 0.437500 0.071879 -0.437500
v -0.437500 0.009379 -0.437500
v -0.437500 0.009379 0.437500
v -0.437500 0.071879 0.437500
v -0.437500 0.071879 -0.437500
vt 0.0000 0.8750
vt 1.0000 0.8750
vt 1.0000 1.0000
vt 0.0000 1.0000
vt 0.0000 0.8750
vt 1.0000 0.8750
vt 1.0000 1.0000
vt 0.0000 1.0000
vt 1.0000 0.9375
vt 1.0000 1.0000
vt 0.0000 0.9375
vt 1.0000 0.9375
vt 0.0000 1.0000
vt 0.0000 0.9375
vt 1.0000 0.5000
vt 0.0000 0.5000
vt 0.0000 0.0000
vt 0.0000 0.0000
vt 0.0000 0.0000
vt 0.0000 0.0000
vn -1.0000 0.0000 0.0000
vn 0.0000 0.0000 1.0000
vn 0.0000 -1.0000 -0.0000
usemtl none
s off
f 29/61/10 30/62/10 31/63/10 32/64/10
f 33/65/10 34/66/10 35/67/10 36/68/10
f 29/69/11 32/70/11 36/68/11 33/71/11
f 30/72/11 31/63/11 35/73/11 34/74/11
f 32/75/12 31/63/12 35/73/12 36/76/12
usemtl none_NONE
f 29/77/12 30/78/12 34/79/12 33/80/12
o nodebox16
v 0.187500 0.259379 -0.187500
v 0.187500 0.259379 0.187500
v 0.187500 0.321879 0.187500
v 0.187500 0.321879 -0.187500
v -0.187500 0.259379 -0.187500
v -0.187500 0.259379 0.187500
v -0.187500 0.321879 0.187500
v -0.187500 0.321879 -0.187500
vt 0.0000 0.8750
vt 1.0000 0.8750
vt 1.0000 1.0000
vt 0.0000 1.0000
vt 0.0000 0.8750
vt 1.0000 0.8750
vt 1.0000 1.0000
vt 0.0000 1.0000
vt 1.0000 0.8438
vt 1.0000 1.0000
vt 0.0000 0.8438
vt 1.0000 0.8438
vt 0.0000 1.0000
vt 0.0000 0.8438
vt 1.0000 0.5000
vt 0.0000 0.5000
vt 0.0000 0.0000
vt 0.0000 0.0000
vt 0.0000 0.0000
vt 0.0000 0.0000
vn -1.0000 0.0000 0.0000
vn 0.0000 0.0000 1.0000
vn 0.0000 -1.0000 -0.0000
usemtl none
s off
f 37/81/13 38/82/13 39/83/13 40/84/13
f 41/85/13 42/86/13 43/87/13 44/88/13
f 37/89/14 40/90/14 44/88/14 41/91/14
f 38/92/14 39/83/14 43/93/14 42/94/14
f 40/95/15 39/83/15 43/93/15 44/96/15
usemtl none_NONE
f 37/97/15 38/98/15 42/99/15 41/100/15
o nodebox14
v 0.312500 0.134379 -0.312500
v 0.312500 0.134379 0.312500
v 0.312500 0.196879 0.312500
v 0.312500 0.196879 -0.312500
v -0.312500 0.134379 -0.312500
v -0.312500 0.134379 0.312500
v -0.312500 0.196879 0.312500
v -0.312500 0.196879 -0.312500
vt 0.0000 0.8750
vt 1.0000 0.8750
vt 1.0000 1.0000
vt 0.0000 1.0000
vt 0.0000 0.8750
vt 1.0000 0.8750
vt 1.0000 1.0000
vt 0.0000 1.0000
vt 1.0000 0.9062
vt 1.0000 1.0000
vt 0.0000 0.9062
vt 1.0000 0.9062
vt 0.0000 1.0000
vt 0.0000 0.9062
vt 1.0000 0.5000
vt 0.0000 0.5000
vt 0.0000 0.0000
vt 0.0000 0.0000
vt 0.0000 0.0000
vt 0.0000 0.0000
vn -1.0000 0.0000 0.0000
vn 0.0000 0.0000 1.0000
vn 0.0000 -1.0000 -0.0000
usemtl none
s off
f 45/101/16 46/102/16 47/103/16 48/104/16
f 49/105/16 50/106/16 51/107/16 52/108/16
f 45/109/17 48/110/17 52/108/17 49/111/17
f 46/112/17 47/103/17 51/113/17 50/114/17
f 48/115/18 47/103/18 51/113/18 52/116/18
usemtl none_NONE
f 45/117/18 46/118/18 50/119/18 49/120/18
o nodebox17
v 0.375374 -0.494080 -0.374404
v 0.375374 -0.494080 0.375596
v 0.375374 -0.369080 0.375596
v 0.375374 -0.369080 -0.374404
v -0.374626 -0.494080 -0.374404
v -0.374626 -0.494080 0.375596
v -0.374626 -0.369080 0.375596
v -0.374626 -0.369080 -0.374404
vt 1.0000 0.1875
vt -0.0000 0.1875
vt 0.0000 0.0000
vt 1.0000 0.0000
vt 1.0000 0.1875
vt 0.0000 0.1875
vt 0.0000 0.0000
vt 1.0000 0.0000
vt 1.0000 0.0000
vt 1.0000 0.1667
vt 0.0000 0.1667
vt 0.0000 0.0000
vt 1.0000 0.0000
vt 1.0000 0.1667
vt 0.0000 0.1667
vt 0.0000 0.0000
vt 0.9999 0.0001
vt 0.9999 0.5000
vt 0.0001 0.5000
vt 0.0001 0.0001
vt 0.9999 0.0001
vt 0.9999 0.5000
vt 0.0001 0.5000
vt 0.0001 0.0001
vn -1.0000 0.0000 0.0000
vn 0.0000 -0.0000 1.0000
vn 0.0000 -1.0000 -0.0000
usemtl none
s off
f 53/121/19 54/122/19 55/123/19 56/124/19
f 57/125/19 58/126/19 59/127/19 60/128/19
f 53/129/20 56/130/20 60/131/20 57/132/20
f 54/133/20 55/134/20 59/135/20 58/136/20
f 53/137/21 54/138/21 58/139/21 57/140/21
f 56/141/21 55/142/21 59/143/21 60/144/21
o nodebox13
v 0.375000 0.071879 -0.375000
v 0.375000 0.071879 0.375000
v 0.375000 0.134379 0.375000
v 0.375000 0.134379 -0.375000
v -0.375000 0.071879 -0.375000
v -0.375000 0.071879 0.375000
v -0.375000 0.134379 0.375000
v -0.375000 0.134379 -0.375000
vt -0.0000 0.8750
vt 1.0000 0.8750
vt 1.0000 1.0000
vt -0.0000 1.0000
vt 0.0000 0.8750
vt 1.0000 0.8750
vt 1.0000 1.0000
vt 0.0000 1.0000
vt 1.0000 0.9062
vt 1.0000 1.0000
vt 0.0000 0.9062
vt 1.0000 0.9062
vt 0.0000 1.0000
vt 0.0000 0.9062
vt 1.0000 0.5000
vt 0.0000 0.5000
vt 0.0000 0.0000
vt 0.0000 0.0000
vt 0.0000 0.0000
vt 0.0000 0.0000
vn -1.0000 0.0000 0.0000
vn 0.0000 -0.0000 1.0000
vn 0.0000 -1.0000 -0.0000
usemtl none
s off
f 61/145/22 62/146/22 63/147/22 64/148/22
f 65/149/22 66/150/22 67/151/22 68/152/22
f 61/153/23 64/154/23 68/152/23 65/155/23
f 62/156/23 63/147/23 67/157/23 66/158/23
f 64/159/24 63/147/24 67/157/24 68/160/24
usemtl none_NONE
f 61/161/24 62/162/24 66/163/24 65/164/24
